<?xml version="1.0" encoding="UTF-8"?>
<svg id="Camada_2" data-name="Camada 2" xmlns="http://www.w3.org/2000/svg" viewBox="0 0 433.03 478.81">
  <defs>
    <style>
      .cls-1 {
        fill: #96ce8e;
      }
    </style>
  </defs>
  <g id="Layer_1" data-name="Layer 1">
    <g>
      <path class="cls-1" d="M291.45,342.92l6.83-54.01c.09-.72-.47-1.42-1.59-2-21.42-11.07-42.84-22.14-64.26-33.21-2.41-1.25-3.62-2.76-3.42-4.3l13.11-103.6c.32-2.52-8.33-3.62-12.19-1.56-34.05,18.26-68.11,36.52-102.16,54.78-2.64,1.41-3.92,3.12-3.63,4.84,4.96,29.41,9.93,58.81,14.9,88.22.37,2.19,3,4.24,7.34,5.71,45.59,15.48,91.17,30.95,136.76,46.43,3.12,1.06,8.11.28,8.31-1.3Z"/>
      <path class="cls-1" d="M294.62,430.59l7.81-27.06c.1-.36-.45-.71-1.56-.99-21.21-5.4-42.43-10.79-63.64-16.19-2.39-.61-3.57-1.36-3.35-2.13l14.98-51.91c.36-1.26-8.27-1.76-12.16-.7-34.37,9.36-68.75,18.72-103.12,28.08-2.66.73-3.97,1.59-3.71,2.45,4.43,14.68,8.86,29.35,13.3,44.03.33,1.09,2.93,2.1,7.24,2.81,45.29,7.44,90.59,14.88,135.88,22.32,3.1.51,8.1.09,8.33-.7Z"/>
      <path class="cls-1" d="M284.84,147.99l7.81-27.06c.1-.36-.45-.71-1.56-.99-21.21-5.4-42.43-10.79-63.64-16.19-2.39-.61-3.57-1.36-3.35-2.13l14.98-51.91c.36-1.26-8.27-1.76-12.16-.7-34.37,9.36-68.75,18.72-103.12,28.08-2.66.73-3.97,1.59-3.71,2.45,4.43,14.68,8.86,29.35,13.3,44.03.33,1.09,2.93,2.1,7.24,2.81,45.29,7.44,90.59,14.88,135.88,22.32,3.1.51,8.1.09,8.33-.7Z"/>
      <path class="cls-1" d="M296.24,475.2l8.3-13.59c.11-.18-.43-.35-1.54-.49-21.11-2.56-42.22-5.12-63.33-7.68-2.38-.29-3.54-.66-3.31-1.04l15.92-26.07c.39-.63-8.23-.82-12.14-.27-34.54,4.91-69.07,9.82-103.61,14.73-2.68.38-4,.82-3.76,1.25,4.17,7.31,8.33,14.63,12.5,21.94.31.54,2.89,1.03,7.18,1.36,45.15,3.42,90.3,6.84,135.45,10.26,3.09.23,8.1-.01,8.34-.41Z"/>
      <path class="cls-1" d="M280.91,51.73l8.3-13.59c.11-.18-.43-.35-1.54-.49-21.11-2.56-42.22-5.12-63.33-7.68-2.38-.29-3.54-.66-3.31-1.04l15.92-26.07c.39-.63-8.23-.82-12.14-.27-34.54,4.91-69.07,9.82-103.61,14.73-2.68.38-4,.82-3.76,1.25,4.17,7.31,8.33,14.63,12.5,21.94.31.54,2.89,1.03,7.18,1.36,45.15,3.42,90.3,6.84,135.45,10.26,3.09.23,8.1-.01,8.34-.41Z"/>
      <path class="cls-1" d="M135.68,344.98l2.44-53.95c.03-.72-.26-1.43-.83-2.01-10.91-11.21-21.83-22.42-32.74-33.63-1.23-1.26-1.86-2.79-1.79-4.32l4.68-103.49c.11-2.51-4.23-3.68-6.12-1.64-16.7,18.03-33.41,36.06-50.11,54.09-1.29,1.4-1.9,3.1-1.73,4.82,3.02,29.43,6.03,58.86,9.05,88.29.22,2.19,1.58,4.26,3.78,5.76,23.08,15.77,46.17,31.55,69.25,47.32,1.58,1.08,4.06.33,4.13-1.24Z"/>
      <path class="cls-1" d="M138.86,432.66l3.42-27c.05-.36-.24-.71-.8-1-10.71-5.53-21.42-11.07-32.13-16.6-1.21-.62-1.81-1.38-1.71-2.15l6.55-51.8c.16-1.26-4.17-1.81-6.09-.78-17.03,9.13-34.05,18.26-51.08,27.39-1.32.71-1.96,1.56-1.81,2.42,2.48,14.7,4.97,29.41,7.45,44.11.18,1.1,1.5,2.12,3.67,2.86,22.79,7.74,45.58,15.48,68.38,23.21,1.56.53,4.06.14,4.16-.65Z"/>
      <path class="cls-1" d="M128.85,150.06l3.42-27c.05-.36-.24-.71-.8-1-10.71-5.53-21.42-11.07-32.13-16.6-1.21-.62-1.81-1.38-1.71-2.15l6.55-51.8c.16-1.26-4.17-1.81-6.09-.78-17.03,9.13-34.05,18.26-51.08,27.39-1.32.71-1.96,1.56-1.81,2.42,2.48,14.7,4.97,29.41,7.45,44.11.18,1.1,1.5,2.12,3.67,2.86,22.79,7.74,45.58,15.48,68.38,23.21,1.56.53,4.06.14,4.16-.65Z"/>
      <path class="cls-1" d="M140.47,477.26l3.9-13.53c.05-.18-.22-.35-.78-.5-10.61-2.7-21.21-5.4-31.82-8.09-1.19-.3-1.78-.68-1.67-1.06l7.49-25.96c.18-.63-4.13-.88-6.08-.35-17.19,4.68-34.37,9.36-51.56,14.04-1.33.36-1.99.79-1.86,1.22,2.22,7.34,4.43,14.68,6.65,22.02.17.55,1.46,1.05,3.62,1.4,22.65,3.72,45.29,7.44,67.94,11.16,1.55.25,4.05.04,4.17-.35Z"/>
      <path class="cls-1" d="M125.14,53.8l3.9-13.53c.05-.18-.22-.35-.78-.5-10.61-2.7-21.21-5.4-31.82-8.09-1.19-.3-1.78-.68-1.67-1.06l7.49-25.96c.18-.63-4.13-.88-6.08-.35-17.19,4.68-34.37,9.36-51.56,14.04-1.33.36-1.99.79-1.86,1.22,2.22,7.34,4.43,14.68,6.65,22.02.17.55,1.46,1.05,3.62,1.4,22.65,3.72,45.29,7.44,67.94,11.16,1.55.25,4.05.04,4.17-.35Z"/>
      <path class="cls-1" d="M381.36,341.72l2.44-53.95c.03-.72-.26-1.43-.83-2.01-10.91-11.21-21.83-22.42-32.74-33.63-1.23-1.26-1.86-2.79-1.79-4.32l4.68-103.49c.11-2.51-4.23-3.68-6.12-1.64-16.7,18.03-33.41,36.06-50.11,54.09-1.29,1.4-1.9,3.1-1.73,4.82,3.02,29.43,6.03,58.86,9.05,88.29.22,2.19,1.58,4.26,3.78,5.76,23.08,15.77,46.17,31.55,69.25,47.32,1.58,1.08,4.06.33,4.13-1.24Z"/>
      <path class="cls-1" d="M384.53,429.4l3.42-27c.05-.36-.24-.71-.8-1-10.71-5.53-21.42-11.07-32.13-16.6-1.21-.62-1.81-1.38-1.71-2.15l6.55-51.8c.16-1.26-4.17-1.81-6.09-.78-17.03,9.13-34.05,18.26-51.08,27.39-1.32.71-1.96,1.56-1.81,2.42,2.48,14.7,4.97,29.41,7.45,44.11.18,1.1,1.5,2.12,3.67,2.86,22.79,7.74,45.58,15.48,68.38,23.21,1.56.53,4.06.14,4.16-.65Z"/>
      <path class="cls-1" d="M374.52,146.81l3.42-27c.05-.36-.24-.71-.8-1-10.71-5.53-21.42-11.07-32.13-16.6-1.21-.62-1.81-1.38-1.71-2.15l6.55-51.8c.16-1.26-4.17-1.81-6.09-.78-17.03,9.13-34.05,18.26-51.08,27.39-1.32.71-1.96,1.56-1.81,2.42,2.48,14.7,4.97,29.41,7.45,44.11.18,1.1,1.5,2.12,3.67,2.86,22.79,7.74,45.58,15.48,68.38,23.21,1.56.53,4.06.14,4.16-.65Z"/>
      <path class="cls-1" d="M386.14,474.01l3.9-13.53c.05-.18-.22-.35-.78-.5-10.61-2.7-21.21-5.4-31.82-8.09-1.19-.3-1.78-.68-1.67-1.06l7.49-25.96c.18-.63-4.13-.88-6.08-.35-17.19,4.68-34.37,9.36-51.56,14.04-1.33.36-1.99.79-1.86,1.22,2.22,7.34,4.43,14.68,6.65,22.02.17.55,1.46,1.05,3.62,1.4,22.65,3.72,45.29,7.44,67.94,11.16,1.55.25,4.05.04,4.17-.35Z"/>
      <path class="cls-1" d="M370.81,50.54l3.9-13.53c.05-.18-.22-.35-.78-.5-10.61-2.7-21.21-5.4-31.82-8.09-1.19-.3-1.78-.68-1.67-1.06l7.49-25.96c.18-.63-4.13-.88-6.08-.35-17.19,4.68-34.37,9.36-51.56,14.04-1.33.36-1.99.79-1.86,1.22,2.22,7.34,4.43,14.68,6.65,22.02.17.55,1.46,1.05,3.62,1.4,22.65,3.72,45.29,7.44,67.94,11.16,1.55.25,4.05.04,4.17-.35Z"/>
      <path class="cls-1" d="M52.38,346.08l.25-53.92c0-.72-.16-1.43-.45-2.02-5.66-11.28-11.33-22.56-16.99-33.83-.64-1.27-.98-2.8-.97-4.33l.47-103.43c.01-2.51-2.19-3.7-3.09-1.68-8.03,17.91-16.06,35.83-24.09,53.74-.62,1.39-.9,3.08-.78,4.81,2.04,29.44,4.08,58.89,6.12,88.33.15,2.19.87,4.27,1.99,5.78,11.83,15.92,23.67,31.84,35.5,47.77.81,1.09,2.04.36,2.05-1.21Z"/>
      <path class="cls-1" d="M55.55,433.76l1.22-26.98c.02-.36-.13-.71-.42-1.01-5.46-5.6-10.91-11.21-16.37-16.81-.61-.63-.93-1.39-.9-2.16l2.34-51.74c.06-1.26-2.12-1.84-3.06-.82-8.35,9.01-16.7,18.03-25.06,27.04-.65.7-.95,1.55-.86,2.41,1.51,14.72,3.02,29.43,4.52,44.15.11,1.1.79,2.13,1.89,2.88,11.54,7.89,23.08,15.77,34.63,23.66.79.54,2.03.17,2.07-.62Z"/>
      <path class="cls-1" d="M45.43,151.17l1.22-26.98c.02-.36-.13-.71-.42-1.01-5.46-5.6-10.91-11.21-16.37-16.81-.61-.63-.93-1.39-.9-2.16l2.34-51.74c.06-1.26-2.12-1.84-3.06-.82-8.35,9.01-16.7,18.03-25.06,27.04-.65.7-.95,1.55-.86,2.41,1.51,14.72,3.02,29.43,4.52,44.15.11,1.1.79,2.13,1.89,2.88,11.54,7.89,23.08,15.77,34.63,23.66.79.54,2.03.17,2.07-.62Z"/>
      <path class="cls-1" d="M57.17,478.37l1.71-13.5c.02-.18-.12-.36-.4-.5-5.35-2.77-10.71-5.53-16.06-8.3-.6-.31-.9-.69-.86-1.08l3.28-25.9c.08-.63-2.08-.91-3.05-.39-8.51,4.56-17.03,9.13-25.54,13.69-.66.35-.98.78-.91,1.21,1.24,7.35,2.48,14.7,3.72,22.05.09.55.75,1.06,1.84,1.43,11.4,3.87,22.79,7.74,34.19,11.61.78.26,2.03.07,2.08-.32Z"/>
      <path class="cls-1" d="M41.84,54.9l1.71-13.5c.02-.18-.12-.36-.4-.5-5.35-2.77-10.71-5.53-16.06-8.3-.6-.31-.9-.69-.86-1.08l3.28-25.9c.08-.63-2.08-.91-3.05-.39C17.94,9.79,9.43,14.36.92,18.92c-.66.35-.98.78-.91,1.21,1.24,7.35,2.48,14.7,3.72,22.05.09.55.75,1.06,1.84,1.43,11.4,3.87,22.79,7.74,34.19,11.61.78.26,2.03.07,2.08-.32Z"/>
      <path class="cls-1" d="M426.53,341.12l.25-53.92c0-.72-.16-1.43-.45-2.02-5.66-11.28-11.33-22.56-16.99-33.83-.64-1.27-.98-2.8-.97-4.33l.47-103.43c.01-2.51-2.19-3.7-3.09-1.68-8.03,17.91-16.06,35.83-24.09,53.74-.62,1.39-.9,3.08-.78,4.81,2.04,29.44,4.08,58.89,6.12,88.33.15,2.19.87,4.27,1.99,5.78,11.83,15.92,23.67,31.84,35.5,47.77.81,1.09,2.04.36,2.05-1.21Z"/>
      <path class="cls-1" d="M429.71,428.8l1.22-26.98c.02-.36-.13-.71-.42-1.01-5.46-5.6-10.91-11.21-16.37-16.81-.61-.63-.93-1.39-.9-2.16l2.34-51.74c.06-1.26-2.12-1.84-3.06-.82-8.35,9.01-16.7,18.03-25.06,27.04-.65.7-.95,1.55-.86,2.41,1.51,14.72,3.02,29.43,4.52,44.15.11,1.1.79,2.13,1.89,2.88,11.54,7.89,23.08,15.77,34.63,23.66.79.54,2.03.17,2.07-.62Z"/>
      <path class="cls-1" d="M419.59,146.21l1.22-26.98c.02-.36-.13-.71-.42-1.01-5.46-5.6-10.91-11.21-16.37-16.81-.61-.63-.93-1.39-.9-2.16l2.34-51.74c.06-1.26-2.12-1.84-3.06-.82-8.35,9.01-16.7,18.03-25.06,27.04-.65.7-.95,1.55-.86,2.41,1.51,14.72,3.02,29.43,4.52,44.15.11,1.1.79,2.13,1.89,2.88,11.54,7.89,23.08,15.77,34.63,23.66.79.54,2.03.17,2.07-.62Z"/>
      <path class="cls-1" d="M431.32,473.41l1.71-13.5c.02-.18-.12-.36-.4-.5-5.35-2.77-10.71-5.53-16.06-8.3-.6-.31-.9-.69-.86-1.08l3.28-25.9c.08-.63-2.08-.91-3.05-.39-8.51,4.56-17.03,9.13-25.54,13.69-.66.35-.98.78-.91,1.21,1.24,7.35,2.48,14.7,3.72,22.05.09.55.75,1.06,1.84,1.43,11.4,3.87,22.79,7.74,34.19,11.61.78.26,2.03.07,2.08-.32Z"/>
      <path class="cls-1" d="M415.99,49.94l1.71-13.5c.02-.18-.12-.36-.4-.5-5.35-2.77-10.71-5.53-16.06-8.3-.6-.31-.9-.69-.86-1.08l3.28-25.9c.08-.63-2.08-.91-3.05-.39-8.51,4.56-17.03,9.13-25.54,13.69-.66.35-.98.78-.91,1.21,1.24,7.35,2.48,14.7,3.72,22.05.09.55.75,1.06,1.84,1.43,11.4,3.87,22.79,7.74,34.19,11.61.78.26,2.03.07,2.08-.32Z"/>
    </g>
  </g>
</svg>