<svg width="118" height="56" viewBox="0 0 118 56" fill="none" xmlns="http://www.w3.org/2000/svg">
<path d="M9.19121 15.215V12.1097H23.8722C23.6535 19.8276 17.8184 24.093 11.638 24.093C5.45772 24.093 0 18.6333 0 12.3586C0 4.83145 5.77286 0 11.638 0C16.0921 0 19.92 2.10159 22.2725 6.27466H18.3202C16.343 4.01651 14.3679 3.10722 11.7946 3.10722C7.27829 3.10722 3.38824 7.37263 3.38824 11.9532C3.38824 16.8468 7.24618 20.9878 11.9211 20.9878C15.5903 20.9878 18.539 18.9484 20.0143 15.215H9.19121Z" fill="white"/>
<path d="M39.0871 23.6535V16.8148H31.1825L26.5077 23.6535H22.3667L38.3043 0.439621H42.4774V23.6535H39.0891H39.0871ZM39.0871 4.83148H39.0249L33.3163 13.7095H39.0891V4.83148H39.0871Z" fill="white"/>
<path d="M57.6603 23.6535L50.0066 12.8946H49.9444V23.6535H46.5562V0.439621H53.991C59.5752 0.439621 62.0521 3.38827 62.0521 8.15749C62.0521 12.5815 58.6639 14.9019 55.4021 14.9962L61.8956 23.6535H57.6603ZM52.4213 12.4229C56.3736 12.4229 58.6639 10.8853 58.6639 7.87447C58.6639 5.20885 56.5302 3.54484 53.5193 3.54484H49.9424V12.4229H52.4213Z" fill="white"/>
<path d="M64.8745 23.6535V0.439621H77.3917V3.54484H68.2627V10.3835H77.3917V13.4887H68.2627V20.5462H77.3917V23.6515H64.8745V23.6535Z" fill="white"/>
<path d="M97.367 23.6556V21.6363H97.3168C96.2168 23.1699 94.3762 24.0129 92.3067 24.0129C88.1918 24.0129 84.9441 20.8937 84.9441 16.7286C84.9441 12.5636 88.0112 9.11111 92.2284 9.11111C94.1453 9.11111 95.9599 9.8016 97.11 11.2328H97.1602V4.73932H99.8178V23.6556H97.363H97.367ZM92.4331 11.5379C89.7234 11.5379 87.6017 13.8121 87.6017 16.5982C87.6017 19.3842 89.7735 21.5822 92.4331 21.5822C95.0928 21.5822 97.367 19.3842 97.367 16.7005C97.367 13.8121 95.424 11.5379 92.4331 11.5379Z" fill="white"/>
<path d="M109.788 24.0131C105.799 24.0131 102.247 20.6128 102.247 16.6264C102.247 12.3068 105.647 9.11125 109.993 9.11125C113.903 9.11125 117.584 12.1783 117.534 16.6766C117.484 20.4602 114.312 24.0131 109.788 24.0131ZM109.866 11.538C107.207 11.538 104.906 13.7881 104.906 16.5481C104.906 19.3081 107.13 21.5843 109.814 21.5843C112.498 21.5843 114.874 19.3864 114.874 16.524C114.874 13.6617 112.65 11.54 109.864 11.54L109.866 11.538Z" fill="white"/>
<path d="M11.889 55.087C5.45772 55.087 0 49.565 0 43.2924C0 36.1706 5.45772 30.996 11.9833 30.996C18.8842 30.996 24.1553 36.4236 24.1553 42.8849C24.1553 49.9123 18.7277 55.087 11.889 55.087ZM20.767 43.1037C20.767 38.3044 17.1279 34.1012 12.2342 34.1012C5.95953 34.1012 3.38824 39.4967 3.38824 42.9471C3.38824 47.622 6.77648 51.9818 12.0776 51.9818C17.3788 51.9818 20.767 47.339 20.767 43.1037Z" fill="white"/>
<path d="M38.1781 54.6474L30.5244 43.8886H30.4622V54.6474H27.074V31.4336H34.5088C40.093 31.4336 42.57 34.3822 42.57 39.1515C42.57 43.5754 39.1817 45.8958 35.9199 45.9902L42.4134 54.6474H38.1781ZM32.9392 43.4169C36.8914 43.4169 39.1817 41.8793 39.1817 38.8684C39.1817 36.2028 37.048 34.5388 34.0371 34.5388H30.4602V43.4169H32.9392Z" fill="white"/>
<path d="M45.7073 54.6474V31.4336H49.0955V54.6474H45.7073Z" fill="white"/>
<path d="M53.1421 54.6474V31.4336H65.6593V34.5388H56.5303V41.3775H65.6593V44.4827H56.5303V51.5402H65.6593V54.6454H53.1421V54.6474Z" fill="white"/>
<path d="M84.3868 54.6474L72.9053 36.7046H72.8431V54.6474H69.4548V31.4336H73.1562L84.449 49.0954H84.5112V31.4336H87.8995V54.6474H84.3868Z" fill="white"/>
<path d="M94.6138 54.6474V34.5388H90.1597V31.4336H102.456V34.5388H98.002V54.6474H94.6138Z" fill="white"/>
<path d="M104.433 54.6474V31.4336H116.951V34.5388H107.822V41.3775H116.951V44.4827H107.822V51.5402H116.951V54.6454H104.433V54.6474Z" fill="white"/>
</svg>
